<?xml version="1.0" standalone="no"?>
<!DOCTYPE svg PUBLIC "-//W3C//DTD SVG 20010904//EN"
 "http://www.w3.org/TR/2001/REC-SVG-20010904/DTD/svg10.dtd">
<svg version="1.0" xmlns="http://www.w3.org/2000/svg"
 width="1980.000000pt" height="1980.000000pt" viewBox="0 0 1980.000000 1980.000000"
 preserveAspectRatio="xMidYMid meet">

<g transform="translate(0.000000,1980.000000) scale(0.100000,-0.100000)"
fill="#000000" stroke="none">
<path d="M7056 16908 c-31 -48 -75 -167 -94 -258 -60 -282 -79 -497 -64 -722
7 -111 8 -218 1 -336 -10 -183 -16 -221 -49 -317 -12 -33 -32 -110 -45 -170
-12 -61 -45 -171 -73 -245 -54 -146 -114 -363 -131 -475 -14 -94 -4 -578 15
-718 8 -59 28 -163 45 -230 41 -170 49 -196 69 -242 10 -22 20 -60 24 -85 l6
-45 -102 -53 c-57 -29 -156 -90 -220 -135 -116 -81 -217 -162 -168 -134 77 43
394 210 443 232 32 15 64 24 72 21 8 -3 21 -22 30 -42 13 -31 13 -40 3 -49 -7
-6 -49 -41 -94 -78 -44 -36 -110 -97 -146 -136 -62 -65 -148 -180 -148 -198 0
-4 24 16 53 44 89 87 351 313 364 313 13 0 48 -86 57 -141 4 -19 2 -106 -3
-194 -6 -117 -5 -210 5 -348 8 -104 16 -192 19 -196 13 -22 26 -165 31 -342 6
-209 -5 -318 -56 -579 -11 -52 -22 -117 -25 -145 -4 -27 -13 -76 -21 -107 -15
-61 -106 -282 -156 -381 -16 -33 -27 -65 -24 -72 2 -7 21 -16 40 -19 23 -4 42
-16 53 -32 15 -24 15 -33 -2 -138 -21 -127 -16 -173 15 -156 16 8 25 5 50 -18
31 -27 32 -28 36 -146 4 -119 6 -131 43 -269 13 -50 22 -121 25 -205 4 -103 8
-129 21 -137 12 -7 20 -5 29 8 19 24 24 9 32 -102 8 -106 15 -121 44 -103 19
12 22 10 35 -22 15 -36 80 -285 115 -446 34 -153 58 -281 95 -515 34 -213 46
-256 64 -226 7 11 11 10 19 -5 17 -32 60 -206 66 -269 10 -92 61 -388 106
-610 38 -186 41 -218 51 -455 5 -140 16 -302 24 -360 8 -58 19 -157 25 -220 6
-63 15 -153 20 -200 21 -191 51 -1152 41 -1296 -9 -108 -23 -136 -113 -219
-73 -68 -88 -74 -192 -82 -50 -4 -95 -13 -116 -25 -64 -33 -183 -142 -192
-173 -9 -34 -2 -128 17 -225 7 -36 16 -93 20 -127 4 -34 12 -66 18 -71 13 -10
135 -37 237 -53 36 -5 83 -14 106 -19 110 -25 572 -64 685 -58 119 6 152 22
170 80 12 38 18 43 47 46 40 4 72 -20 72 -55 0 -13 -11 -40 -25 -61 -35 -54
-65 -147 -65 -206 0 -78 25 -116 97 -146 33 -14 73 -35 90 -47 127 -93 424
-107 698 -33 75 21 152 33 240 40 88 6 171 20 255 41 140 37 160 37 665 29
256 -4 399 4 680 35 251 28 546 38 1215 41 371 1 797 7 945 14 149 6 509 13
800 16 433 5 568 3 735 -10 421 -32 430 -32 496 -2 46 21 84 29 173 37 218 18
344 46 521 116 448 177 879 508 1093 840 103 158 176 333 197 472 10 58 9 95
-4 189 -8 64 -20 161 -26 214 -12 112 -25 158 -85 285 -49 104 -172 287 -240
357 -49 51 -188 145 -261 177 -63 28 -157 23 -206 -10 -60 -42 -82 -85 -87
-168 -4 -88 4 -113 120 -380 99 -227 129 -322 136 -439 7 -111 -6 -157 -72
-249 -93 -131 -341 -319 -560 -425 -194 -94 -283 -123 -360 -117 -33 2 -105 0
-160 -4 -120 -11 -228 1 -338 37 -110 37 -112 39 -103 223 7 148 37 323 69
406 14 34 16 36 17 14 0 -14 11 -35 25 -47 14 -12 25 -29 25 -37 0 -19 19 -20
26 -1 3 8 1 40 -5 72 -6 32 -7 62 -2 68 4 6 11 65 14 131 4 72 18 178 37 265
16 79 37 204 45 277 9 74 25 173 36 221 22 92 22 100 0 424 -10 147 -27 294
-52 461 -6 40 -24 102 -40 139 -16 36 -29 80 -29 97 0 48 -31 131 -109 291
-69 142 -70 145 -51 163 44 40 21 81 -85 154 -82 56 -142 118 -251 263 -43 58
-122 155 -174 215 -133 152 -229 269 -280 340 -104 142 -217 366 -324 640 -77
200 -161 393 -290 669 -62 133 -135 290 -162 351 -27 60 -66 138 -87 173 -21
35 -37 66 -34 68 2 3 15 1 28 -4 27 -10 109 -4 109 7 0 4 -24 18 -52 32 -79
36 -195 126 -289 224 -357 372 -687 678 -821 761 -24 15 -77 59 -118 98 -41
40 -136 117 -210 172 -378 280 -455 341 -579 455 -74 68 -180 160 -235 204
-68 54 -121 107 -163 162 -65 86 -65 89 -92 263 -7 41 -21 95 -33 120 -22 45
-200 229 -323 332 -73 61 -212 194 -280 267 l-50 54 35 -7 c50 -10 193 -26
197 -22 5 4 -170 76 -236 96 -36 11 -57 24 -62 37 -7 19 -3 21 54 21 67 0 160
29 136 42 -12 7 -50 16 -197 46 -43 9 -116 209 -137 378 -8 61 -17 132 -21
157 -3 25 1 124 10 220 8 96 20 230 26 299 18 209 79 668 95 723 8 29 20 81
26 117 5 35 14 69 19 75 12 15 105 398 180 750 5 22 9 75 10 119 0 76 -1 79
-35 113 l-36 36 -74 -6 c-120 -11 -188 -47 -415 -227 -253 -200 -333 -260
-522 -392 -109 -76 -225 -160 -258 -187 -88 -70 -133 -80 -355 -79 -99 0 -190
5 -203 9 -12 5 -68 13 -125 18 -118 12 -218 40 -266 75 -34 25 -158 191 -190
254 -55 109 -147 267 -243 415 -15 23 -40 65 -56 92 -55 94 -153 223 -205 271
-115 107 -291 234 -324 234 -7 0 -19 -10 -27 -22z m251 -2431 c31 -28 36 -70
19 -149 -20 -97 -8 -142 49 -172 45 -24 107 -17 135 16 16 18 19 32 15 63 -17
118 -17 131 0 149 20 20 52 14 78 -16 27 -32 24 -181 -4 -223 -63 -91 -213
-135 -294 -85 -34 21 -73 74 -92 125 -39 101 -43 266 -9 317 18 27 19 27 49
12 18 -9 42 -26 54 -37z m1651 -176 c82 -31 142 -101 142 -166 0 -104 -88
-257 -174 -302 -39 -20 -191 -23 -225 -4 -61 34 -120 144 -121 224 0 60 31
151 68 196 26 32 37 37 133 57 57 12 106 21 109 20 3 -1 33 -12 68 -25z
m-1015 -898 c25 -4 44 0 61 11 30 19 66 21 66 3 0 -51 -130 -87 -185 -51 -25
16 -55 67 -55 94 0 6 17 -3 38 -20 21 -17 55 -33 75 -37z m-338 -506 c15 -12
17 -24 13 -91 -5 -83 -8 -89 -31 -81 -25 10 -64 136 -51 169 7 20 44 21 69 3z"/>
<path d="M8842 14265 c-61 -33 -132 -131 -132 -181 0 -41 23 -99 50 -126 31
-31 78 -37 116 -15 50 28 94 107 94 168 0 34 -9 36 -43 9 -14 -11 -30 -20 -35
-20 -19 0 -23 38 -7 81 19 57 19 85 -1 93 -9 3 -16 6 -17 5 -1 -1 -12 -7 -25
-14z"/>
</g>
</svg>
